<svg id="Layer_1" data-name="Layer 1" xmlns="http://www.w3.org/2000/svg" viewBox="0 0 240 138.93"><path d="M229.64,40.93c1.6-6.09,3.19-12.07.37-18.42s-11.08-12.09-18.08-8.18c-6.29,2.53-9.27,10-9.75,16.38-.65,8.53,4.59,15.7,6.89,23.57a97.12,97.12,0,0,1,3.12,37.31c-1.39,10.93-9.43,22.74-21.85,16.84-7-3.32-8.05-12-7.19-18.85,1.55-12.49,5.49-24.51,9.16-36.5,3.16-10.33,7.24-22.28,0-32a29.52,29.52,0,0,0-16.63-10.6c-17.2-4-40.13,1.55-44.88,20.74C126.13,50,138,65.91,140.87,83.74c2.25,13.91-7.37,29-22.48,28.68-6.83-.14-12.51-4-13.57-11.06-1.92-12.7,7.32-23.69,11.83-34.77,4.18-10.24,6.73-22.23,2.83-33-3.69-10.16-12.91-17.57-23.4-19.72a34.65,34.65,0,0,0-30.8,8.77c-18,17.46-1.34,41.11-3.08,61.7-1.1,12.95-6.32,26.49-21.88,24.24-12.61-1.83-14.88-15-14.4-25.67.52-11.92,2.8-27.18,8.34-37.79,2.12-4.06,5.05-7.73,6.43-12.1C43.23,25,38.37,14.42,29.25,13.44c-10.44-1.13-19.77,8.94-19.62,19,.08,5,2,9.81,2.75,14.72C14.8,63.4,6.16,79,9,95.15c1.6,9.24,4.09,16.92,11.15,23.59C38.57,136.2,67.72,125,75.78,102.47c5.37-15,3.65-30-.19-45-2.27-8.88-3.71-20.75,5.88-25.79C87,28.78,95.36,29.55,100,33.89c4.87,4.59,4.53,12.64,3.17,18.65-1.69,7.44-5.25,14.16-8.54,21-7.93,16.41-11.54,38.25,5.61,50.35,10.73,7.57,26.48,7.27,38.15,2.15,12.84-5.64,18.4-19,19.17-32.31a63.32,63.32,0,0,0-2.3-22c-2.44-8.19-6.14-16-8-24.35C144.16,33.47,153,26,166.32,26c11.22,0,14.2,11.56,11.13,20.56C172.23,61.9,165.5,78.66,166,95.13c.3,11,2.44,22.37,13.11,27.9a39.74,39.74,0,0,0,26,3.22c11.11-2.57,19.58-13.35,22.71-23.93C233.71,82.22,224.28,61.25,229.64,40.93Z"/></svg>