<svg id="Layer_1" data-name="Layer 1" xmlns="http://www.w3.org/2000/svg" viewBox="0 0 240 138.93"><path d="M208.23,17.16c-10.39-4.9-21.52-2.39-32.37-.77-15.66,2.34-31.8,4.71-47.83,4.55a220.29,220.29,0,0,1-49.16-6.42c-8.65-2.06-17.12-5.95-25.94-7.89-7.74-1.71-19.54-2.77-24.72,4.81C18,26.33,11.36,44.85,12.32,63.07a64.33,64.33,0,0,0,23.32,46.37C50.31,121.56,68.07,128,86.77,130.68a306.57,306.57,0,0,0,59.88,2.19c19-1.07,39.26-4.68,55.27-15.66,7.84-5.37,14.73-12.28,18.78-21,4.24-9.1,6-18.72,6.73-28.69C228.72,49.36,227.16,26.09,208.23,17.16ZM31.51,37.51c2.71-11.1,10.92-19.31,22.71-17.26C64.94,22.12,76.41,26,72.89,39.09c-1.61,6-4,13-9.57,16.45-6.73,4.09-16.36.55-23.17-1.8C33,51.26,29.7,44.93,31.51,37.51Zm29.7,48.54A52.16,52.16,0,0,1,58,96.28c-4.54,10.35-17.91-.6-21.94-5.72C31.58,84.88,26,77.68,26.11,70,26.34,59.48,36.4,59.64,44,62.07c5.09,1.62,11.73,2.52,15.21,7C62.47,73.31,62.44,79.92,61.21,86.05Zm45.44,24.82c-2.35,4.91-7,7.83-15.61,6.3a101.87,101.87,0,0,1-16.71-4.09c-6.85-2.48-9.79-6.12-9.76-13.53,0-6.53.77-14.78,2.74-21.06,1.8-5.77,7-7,12.44-6.43,6.59.72,13.24,1.93,19.72,3.3,4.93,1,7.88,5,8.43,10C108.78,93.3,109.93,104,106.65,110.87Zm7.25-68.29a42.58,42.58,0,0,1-1,10.26c-1.69,8.29-5.06,16.25-15,15.31-5.91-.56-13.55-.65-18.66-4.05-5.34-3.56-4.72-9.49-3.1-14.85s2.37-12.86,6.64-17.07c4.72-4.66,12.89-3.69,18.74-2.31C108.65,31.57,113.51,34.51,113.9,42.58Zm42.6,75.16a12.38,12.38,0,0,1-5.71,3.64c-6.4,2.06-13.34.93-19.92.8-5.27-.1-11.42-1-14.24-6.06-3.89-7-1.3-18.15-.44-25.6.59-5.1,2.35-10,7.82-11.12,6-1.27,12.73-1.23,18.83-1.17,4.29,0,9.88.6,13,3.9,2.52,2.66,2.68,6.1,3.06,9.55.47,4.26.79,8.55,1,12.84C160.08,109.55,159.39,114.38,156.5,117.74Zm-7-45.91c-5.3.83-11.15.71-16.5.6-5.81-.11-12.24-.43-14.6-6.71-1.72-4.57-.89-9.8,0-14.48s1.78-9.77,4.46-13.94C126.21,32,131,33,136.48,32.85c6.73-.2,19.16-3.7,22.38,4.81,2.47,6.55,1.82,14.91.9,21.73C159,65.41,156,70.82,149.49,71.83Zm16-28.15c.85-6.12,3.23-11.6,8.69-13.61,7.27-2.68,15.86-3.56,22.71.67,4.87,3,7.8,8,9.25,13.45,1.36,5.07,2.77,12.7.1,17.49-2.06,3.72-6,5.43-10,6.23-6.53,1.3-13.77,3.6-20.49,3.27-5.66-.27-8.9-4.71-9.7-10A64.14,64.14,0,0,1,165.47,43.68Zm35,56.85c-3.69,4.68-8.13,9.42-13.16,12.17-5.43,3-13.79,5.62-18.71.12-2.28-2.54-2-7.25-2.24-10.47a59.86,59.86,0,0,1,.12-11.82c.79-5.87,4.74-9.23,10.31-10.55,7.34-1.75,14.95-4.8,22.62-4,12.37,1.34,8.24,14.93,3,22C201.8,98.8,201.14,99.67,200.46,100.53Z"/></svg>