<svg id="Layer_1" data-name="Layer 1" xmlns="http://www.w3.org/2000/svg" viewBox="0 0 240 138.93"><path d="M233.54,50.05c.35-13.32-5.3-27-15.66-35.14C204.39,4.29,186.56,2.64,170,4.12c-17.62,1.56-33.63,7.78-50.75,11.55-17.51,3.87-33.06-1.3-49.9-5.73C54.72,6.09,36.46,2.49,22.79,11.19,10.49,19,6.12,37,6.6,50.81,8.1,93.19,59.89,92.9,90.35,90.47c8.89-.71,17.77-1.55,26.69-1.78,2.37,0,5.93.43,5.27,3.7-1.34,6.67-9,10.12-10.62,17.06-1.68,7.27,1.52,15,7,19.85,9.33,8.14,24.77,8,36.38,6.86,8.6-.86,18.24-3.61,23.45-11a23.2,23.2,0,0,0,3.89-14.8c-.3-5-2.94-8.78-3.86-13.44-1.1-5.54,6.9-5.19,10.29-5.8C210.36,87.27,232.89,74.5,233.54,50.05ZM194.63,70.28c-8.15,2.86-17.42,4.06-24.24,9.13a24.11,24.11,0,0,0-8.8,24.57c1.14,4.57,3.84,9.74.66,14.08a14.07,14.07,0,0,1-6.14,4.38c-7,2.85-24.65,4-26.13-6.69-.75-5.37,4.75-7.86,7.7-11.33a21,21,0,0,0,3.41-21.19c-3.29-7.86-11.57-10.86-19.49-11.81-16.91-2-33.95-.67-50.89.08-9.87.44-20.42.63-29.76-3A23.79,23.79,0,0,1,26.43,40.06c5.26-20.4,31.4-15.6,46.31-11.15,8.66,2.58,17.37,5.21,26.37,6.3,15,1.81,31.22-1.79,45.73-5.34,19.83-4.85,50.69-17.55,64,5.84a24.15,24.15,0,0,1,1.32,21.77C206.9,64.67,201.12,68,194.63,70.28Z"/></svg>