<svg id="Layer_1" data-name="Layer 1" xmlns="http://www.w3.org/2000/svg" viewBox="0 0 240 138.93"><path d="M231.86,45.37c.53-7-1.32-12.71-8.05-14.58-10.66-3-14.36,7-17.51,14.89l-4,10.06c-27.63-10.9-57.53-14-87.12-11.89-27.13,2-53.79,8.95-75.92,24.6a120.38,120.38,0,0,0-17-12.71C14.83,51.15,5.3,58.28,5.73,66.57c.33,6.51,7.45,11,10.9,16a151.9,151.9,0,0,1,11.25,19.93c3,6.21,5,13.79,11.18,17.7,8,5,18.22.5,21.1-8C63.34,102.75,58,92,53,84.28c18.65-12.77,41.69-18.13,64.07-19.56,26.11-1.66,53.41.32,77.82,10.43-3.4,9-6.15,21.1,3,26.3,13,7.37,19.84-8.37,22.17-18.24C221.73,76,230.87,58.36,231.86,45.37Z"/></svg>