<svg id="Layer_1" data-name="Layer 1" xmlns="http://www.w3.org/2000/svg" viewBox="0 0 240 138.93"><path d="M160.7,62.27c-5.14-1.41-11.85,1.74-12.92,7.33-2.82,14.76-7.2,37.05-23.25,43.3-5.29,2.06-8.57-2.85-8.88-8.44-.49-9,7.48-17.35,12.93-23.67,3.07-3.57,4.12-8.49,1.64-12.72-2.2-3.77-7.55-6.42-11.86-4.83-5.69,2.11-26,10.86-31.07,4.38a6.12,6.12,0,0,1-.83-4.2c1-16.18,13-27.75,27.47-33.31,7.22-2.77,17.84-1.56,24.06-6a10.63,10.63,0,0,0,4.3-9.76c-.92-7.36-7.79-9.62-14.19-9.2C113.63,6.14,99.28,11,87.89,20S68.25,42.17,66.2,56.53c-1.85,13,2,27.79,15.81,32.08A41.23,41.23,0,0,0,97.4,90a35.34,35.34,0,0,0-2.74,14.37c0,.4-.11.79-.15,1.19-1.19,12.87,5.69,26,18.55,29.86a21.13,21.13,0,0,0,17.27-2.32c10.31-3.26,19.12-12,24.72-20.74,7.1-11.12,10.53-24.38,13-37.2C169.09,69.62,166.47,63.86,160.7,62.27Z"/></svg>