<svg id="Layer_1" data-name="Layer 1" xmlns="http://www.w3.org/2000/svg" viewBox="0 0 240 138.93"><path d="M217.12,37.2a94.31,94.31,0,0,0-14.55-19.92c-7.87-8.17-16.53-5.16-26.42-3.41C138.54,20.49,99.84,20,62,16.07,51.29,15,40.7,13,30,11.91c-9.61-1-19.49,4.57-19.3,15.19.22,12.68,14.76,14.1,24,11.1,6.26-2,11.81-4.23,18.47-4.13,7.08.12,14.06,1.48,21.09,2.16a277.05,277.05,0,0,0,29.09,1.27c4,0,7.21.86,10.09,3.78,5.52,5.57,6.54,13,6.7,20.5.27,12.37.13,25.65,5.74,36.94,11.38,22.92,36.93,29.2,60.58,24.9,10.66-1.93,21.92-5.29,30.23-12.73,7.38-6.61,11.44-15.83,12.29-25.63C230.47,68.94,224.9,51.36,217.12,37.2ZM206.89,94.32c-5.78,7.94-18.88,10-27.91,11.15-11.24,1.46-22.91.25-31.17-8.21-5.55-5.67-7.54-13.21-8.08-20.93-.65-9.49.14-19.36-2.14-28.67-.8-3.24-3.17-7-3.41-10.13,4.77-.85,12.73-2.31,17.24.06,4.14,2.18,6.84,7,8.87,11,2.55,5,5,11.29,11.81,10.85,5.39-.35,10.71-6.53,8.43-12A148.68,148.68,0,0,0,174,33.38c.39.72,11.41-2,12.32-2.14,10.27-1.93,18.33,22.9,20.48,29.83C209.76,70.65,213.42,85.36,206.89,94.32Z"/></svg>