<svg id="Layer_1" data-name="Layer 1" xmlns="http://www.w3.org/2000/svg" viewBox="0 0 240 138.93"><path d="M185,40c8.15,4,11.38,13.19,12.17,21.66.35,3.78.69,27.84-5.23,26.52-10.6-2.39-24.85-8.44-30.74,5.35-6.6,15.48,27.74,20.16,36,21.75,8.05,1.56,16.11,2.66,24.23,3.76,4.08.56,9.79.93,12.47-2.82,2.25-3.15,1.74-7.77-.29-10.9-3.86-5.94-11.28-9.59-18.09-10.87.93.18,3.39-13.62,3.56-14.94,1.86-14.15-.47-30.31-7-43.12C198.58,9.64,156.17,9.75,134.8,26c-16.42,12.48-22.1,33.6-30.21,51.58-4.6,10.18-11.91,19.64-22.21,24.5-10,4.72-26.49,6-34-3.88-9.57-12.59-4-32.76,2.3-45.53,2.33-4.75,5.78-2.17,9.7-1.12,6.91,1.86,15.29,3.34,21.94-.23,3.79-2,5.83-6,4.44-10.2C84.4,34,73.49,30.76,67.38,28a248.34,248.34,0,0,0-25.9-10.1c-7.58-2.43-16.3-4.61-24.12-2-6.43,2.11-10.86,8.26-8,15,2.08,4.94,6.27,7.85,11,9.9.75.33,9.19,4.19,9.55,3.44a83.3,83.3,0,0,0-4.78,13.68C18.31,82.12,21.45,120.7,52,126.19c11.68,2.09,25.43,1.53,36.76-2C113,116.48,123.06,91.51,131.81,70c4.9-12.08,9.87-23.53,22.37-29.4C163.11,36.38,176,35.63,185,40Z"/></svg>