<svg id="Layer_1" data-name="Layer 1" xmlns="http://www.w3.org/2000/svg" viewBox="0 0 649.57 235.39"><path d="M512.51,118.15c2.17-16.63-9.91-32.48-24.31-39.51C471.61,70.53,452,73,436.8,82.93c-11.84,7.75.08,26.22,11.92,18.45,9.9-6.49,21.88-7.79,31.73-2a23,23,0,0,1,9.58,11c2,5.25-.92,9.36-3.74,14.41-2.63,4.71-5.2,8.41-10.58,9.71A61.49,61.49,0,0,1,456.3,136c-5.18-.49-11-2.16-14.5-6.13s-3.31-7.9-1-11.55c3.22-5,.26-12.26-4.66-14.82-5.67-3-11.6-.35-14.82,4.66-9.77,15.16-1.6,34.17,12.41,43.1s34,8.25,49.49,4c8.52-2.35,14.7-8.16,19.52-15.33C507,133.51,511.51,125.81,512.51,118.15Z"/><path d="M642.05,129a198.93,198.93,0,0,0-3.27-37.26c-2.18-11.87-6.57-24-18.18-29.57a31.44,31.44,0,0,0-16.86-2.74c-14.39.24-27.66,6.06-41.63,8.7-9.27-.09-18.74-2.51-27.49,1.92-12.76,6.45-17.23,23.7-8.73,35.29a15.1,15.1,0,0,0,2.09,3.42c5.37,6.51,14.33,6.39,21.16,2.37,8.51-5,14.38-15.16,22.91-18.45a12.45,12.45,0,0,0,3-1.7L591,85.28c4.45-1.58,9-3.42,13.77-3.91,1,0,2,0,3,0H608c5.79.66,7.32,5.32,8.8,11.85,2,9,2.94,20.47,3.21,30.46a193.45,193.45,0,0,1-8.64,61.94c-1.49,4.82-3.17,9.58-5.11,14.24a36.59,36.59,0,0,1-3.06,6.52,13,13,0,0,1-1.62,1.85c-1.34,1.32-.16.27-1.64,1.21a13.41,13.41,0,0,1-4.15,1.67,18.82,18.82,0,0,1-4.6.5,23.52,23.52,0,0,1-9.58-2.07c-9.89-4.35-17.57-12.64-25.15-20.17q-1-1.06-2.1-2.07l-3.25-3.18c-6.18-7.83-12.22-16-19-23.16-6.53-6.87-19.39-9.72-26.19-2.62a14.12,14.12,0,0,0-3.85,4.35c-4.4,7.59-1.51,16.83,4.61,22.49,5.48,5.09,12.68,7.77,19.45,10.6a67.66,67.66,0,0,1,10.28,4.79,14.35,14.35,0,0,0,1.75,1.56l2.22,2.18c9.07,8.88,18.19,18.33,29.7,24,10.38,5.16,22.62,6.88,33.79,3.29,12.8-4.12,19.18-14.24,23.75-26.2A217.38,217.38,0,0,0,642.05,129Z"/><path d="M286.5,106a200,200,0,0,0,3.27,37.27c2.18,11.86,6.57,23.94,18.18,29.56a31.48,31.48,0,0,0,16.86,2.75c14.4-.25,27.67-6.07,41.63-8.71,9.28.09,18.74,2.51,27.5-1.91,12.76-6.46,17.22-23.71,8.72-35.3a14.49,14.49,0,0,0-2.09-3.41c-5.37-6.51-14.33-6.4-21.16-2.38-8.5,5-14.37,15.17-22.91,18.45a12.34,12.34,0,0,0-3,1.71l-15.86,5.68c-4.46,1.59-9,3.43-13.77,3.92-1,0-2,0-3,0-.1,0-.21,0-.31,0-5.8-.66-7.33-5.33-8.81-11.86-2-9-2.94-20.47-3.2-30.46a192.83,192.83,0,0,1,8.64-61.93c1.48-4.83,3.16-9.58,5.1-14.25a37.94,37.94,0,0,1,3.06-6.51,13.74,13.74,0,0,1,1.63-1.85c1.34-1.33.15-.28,1.63-1.21a13.82,13.82,0,0,1,4.16-1.68,18.78,18.78,0,0,1,4.6-.49,23.74,23.74,0,0,1,9.58,2.06c9.88,4.36,17.56,12.64,25.14,20.17q1,1.08,2.1,2.07l3.26,3.19c6.18,7.82,12.21,16,19,23.15,6.53,6.87,19.4,9.73,26.19,2.62a14.1,14.1,0,0,0,3.86-4.34c4.4-7.59,1.5-16.83-4.61-22.5-5.48-5.08-12.68-7.77-19.46-10.59a67.12,67.12,0,0,1-10.27-4.79,13.56,13.56,0,0,0-1.76-1.56l-2.22-2.18c-9.06-8.88-18.18-18.33-29.69-24-10.38-5.16-22.63-6.88-33.8-3.29C311.9,7.44,305.52,17.57,301,29.53A217.11,217.11,0,0,0,286.5,106Z"/></svg>