<svg id="Layer_1" data-name="Layer 1" xmlns="http://www.w3.org/2000/svg" viewBox="0 0 649.57 235.39"><path d="M79.69,161.33l0,0v0Z"/><path d="M220.11,70.27C207,49,192.11,29.88,167.21,22.2A143.42,143.42,0,0,0,128,16.15c-14.41-.2-27.84,3.47-40.89,9.24C63.1,36,42.63,53.16,33.53,78.25,29.31,89.88,28,102.74,27.39,115A132.79,132.79,0,0,0,31,154.66c7,27,26.12,50.53,53.27,58.7,10.52,3.16,23.35-3.79,25.83-14.67,2.58-11.32-3.4-22.44-14.67-25.83-.67-.2-1.34-.42-2-.64-.74-.84-4.26-2.16-5-2.65-.09-.06-.82-.46-1.46-.86l-.24-.22a72,72,0,0,1-5.33-5.15c-.22-.25-1.2-1.48-1.69-2,.69.83,2.24,3.35.29.44l-.31-.46a.81.81,0,0,0-.25-.23s.13.08.24.21c-1-1.5-2-3-2.92-4.55-1-1.72-1.88-3.5-2.76-5.3a4.18,4.18,0,0,0-.37-.63c-.36-1-.58-2.15-.85-3q-1.08-3.42-1.87-6.93c-.26-1.17-.5-2.34-.72-3.52,0-.25-.16-1-.26-1.59s-.18-1.47-.21-1.75q-.17-1.8-.27-3.6c-.17-2.71-.24-5.43-.24-8.15,0-4.79.26-9.58.7-14.34.1-1.13.22-2.26.34-3.39.45-4.35-.19.1-.07.51-.57-2,1.16-6.33,1.66-8.35.55-2.2,1.26-4.33,1.92-6.49.07-.24.2-.66.32-1,.28-.57.59-1.15.86-1.67.37-.72,1.2-2.74,2.07-4.19.17-.18.53-.56,1.2-1.3.93-1,1.86-2.07,2.84-3.06,1.39-1.4,2.85-2.68,4.32-4l.91-.8c.54-.36,1.12-.71,1.55-1a132.36,132.36,0,0,1,13.32-8c1.8-1,3.63-1.82,5.47-2.68-2.1,1,3-1.15,4.06-1.5,2.22-.73,4.48-1.37,6.76-1.89.37-.09,1.15-.32,1.89-.5s1.47-.16,2.21-.21a84.76,84.76,0,0,1,14.77.34l2,.26,1.57.25c2.61.43,5.22.89,7.81,1.43,2.8.59,5.59,1.25,8.34,2.09,1.09.34,2.16.72,3.24,1.09l.2.07.28.2c1.09.72,3.22,1.45,4.69,2.4a4.16,4.16,0,0,0,.73.82c1.16,1,2.31,2,3.41,3.14,1.65,1.65,3.21,3.39,4.71,5.18.18.21.61.76.95,1.21l1,1.41c3,4.3,5.81,8.77,8.58,13.25,5.76,9.34,19,13.78,28.73,7.53C222,93,226.28,80.27,220.11,70.27Z"/><path d="M569.88,161.33l0,0,0,0Z"/><path d="M429.46,70.27c13.15-21.31,28-40.39,52.9-48.07a143.49,143.49,0,0,1,39.24-6.05c14.41-.2,27.83,3.47,40.88,9.24,24,10.62,44.46,27.77,53.57,52.86,4.22,11.63,5.52,24.49,6.14,36.78a133.12,133.12,0,0,1-3.63,39.63c-7,27-26.12,50.53-53.27,58.7-10.52,3.16-23.36-3.79-25.84-14.67-2.57-11.32,3.41-22.44,14.67-25.83.67-.2,1.34-.42,2-.64.73-.84,4.25-2.16,5-2.65.08-.06.81-.46,1.46-.86l.23-.22a74.15,74.15,0,0,0,5.34-5.15c.22-.25,1.2-1.48,1.68-2-.69.83-2.24,3.35-.29.44.11-.15.21-.31.31-.46s.22-.23.25-.23-.13.08-.23.21c1-1.5,2-3,2.91-4.55,1-1.72,1.89-3.5,2.76-5.3a7,7,0,0,1,.37-.63c.36-1,.58-2.15.85-3q1.1-3.42,1.87-6.93c.27-1.17.5-2.34.72-3.52.05-.25.16-1,.27-1.59s.17-1.47.2-1.75c.11-1.2.2-2.4.28-3.6q.24-4.06.23-8.15c0-4.79-.25-9.58-.69-14.34-.11-1.13-.23-2.26-.35-3.39-.45-4.35.19.1.07.51.58-2-1.16-6.33-1.66-8.35-.54-2.2-1.26-4.33-1.92-6.49-.07-.24-.2-.66-.31-1l-.86-1.67c-.38-.72-1.21-2.74-2.08-4.19-.17-.18-.53-.56-1.19-1.3-.94-1-1.86-2.07-2.85-3.06-1.38-1.4-2.85-2.68-4.32-4l-.9-.8c-.54-.36-1.12-.71-1.56-1a132.21,132.21,0,0,0-13.31-8c-1.8-1-3.64-1.82-5.48-2.68,2.1,1-3-1.15-4.06-1.5-2.22-.73-4.47-1.37-6.75-1.89-.38-.09-1.16-.32-1.89-.5s-1.47-.16-2.21-.21a84.72,84.72,0,0,0-14.77.34l-2,.26-1.56.25c-2.61.43-5.22.89-7.81,1.43-2.81.59-5.6,1.25-8.34,2.09-1.1.34-2.17.72-3.25,1.09l-.19.07-.29.2c-1.09.72-3.21,1.45-4.69,2.4a3.85,3.85,0,0,1-.73.82c-1.15,1-2.3,2-3.4,3.14-1.66,1.65-3.22,3.39-4.72,5.18l-.95,1.21-1,1.41c-3,4.3-5.81,8.77-8.57,13.25-5.77,9.34-19,13.78-28.73,7.53C427.62,93,423.29,80.27,429.46,70.27Z"/></svg>