<svg id="Layer_1" data-name="Layer 1" xmlns="http://www.w3.org/2000/svg" viewBox="0 0 649.57 235.39"><path d="M199.88,116.89c-3.91,0-7.82-.07-11.72-.36-1.46-.1-2.92-.23-4.38-.38l-2.15-.25-.85-.13a168.36,168.36,0,0,1-19.95-4.55q-4.91-1.47-9.71-3.28c-.43-.17-4-1.63-3.88-1.53-1.48-.65-3-1.33-4.43-2a159.27,159.27,0,0,1-17.91-10c-2.88-1.86-5.66-3.85-8.44-5.85l-.77-.59-1.78-1.42c-1.13-.92-2.25-1.87-3.36-2.83A152.71,152.71,0,0,1,95,68.19c-1-1.1-1.91-2.22-2.83-3.35-.48-.58-.94-1.16-1.41-1.75-.14-.19-.33-.45-.59-.78-2-2.78-4-5.55-5.8-8.44a144.77,144.77,0,0,1-9.56-17.73c-.2-.47-.41-.94-.65-1.4a2.56,2.56,0,0,1-.11-.24,12.4,12.4,0,0,0-5.64-5.81l-.2-.13c-.17-.09-.34-.15-.51-.24l-.45-.21A16.28,16.28,0,0,0,46.32,34.3C37,49.11,38.5,69.19,38.17,86c-.35,18.06.47,36.23,4.17,54C48.56,169.84,65.48,199,92.83,214c7.33,4,17.78,2,21.89-5.74,4-7.49,2.09-17.59-5.74-21.89a73.19,73.19,0,0,1-8.06-5.07q-.81-.66-1.59-1.35c-1.13-1-2.22-2-3.29-3a82.91,82.91,0,0,1-5.93-6.5s-1.42-1.93-1.68-2.3q-1.29-1.86-2.49-3.78-2.41-3.85-4.46-7.93c-.69-1.36-1.34-2.73-2-4.11l-.39-.83c-.09-.24-.2-.56-.36-1a131.75,131.75,0,0,1-5.57-19.07c-2.74-13.15-3.27-28.28-3-43.1,31.75,37.54,80.46,60.86,129.74,60.53,8.37-.06,16.39-7.32,16-16S208.85,116.83,199.88,116.89Z"/><path d="M449.69,116.89c3.92,0,7.82-.07,11.72-.36,1.46-.1,2.92-.23,4.38-.38l2.15-.25.85-.13a167.91,167.91,0,0,0,19.95-4.55q4.9-1.47,9.71-3.28c.43-.17,4-1.63,3.88-1.53,1.49-.65,3-1.33,4.43-2a159.41,159.41,0,0,0,17.92-10c2.87-1.86,5.65-3.85,8.43-5.85l.78-.59,1.77-1.42c1.13-.92,2.26-1.87,3.37-2.83a153.73,153.73,0,0,0,15.55-15.5q1.44-1.65,2.83-3.35c.47-.58.94-1.16,1.4-1.75l.59-.78c2-2.78,4-5.55,5.8-8.44a142.11,142.11,0,0,0,9.56-17.73c.2-.47.42-.94.65-1.4l.12-.24a12.38,12.38,0,0,1,5.63-5.81l.21-.13c.17-.09.34-.15.51-.24l.44-.21a16.3,16.3,0,0,1,20.94,6.19c9.32,14.81,7.82,34.89,8.14,51.71.35,18.06-.47,36.23-4.16,54C601,169.84,584.1,199,556.75,214c-7.34,4-17.78,2-21.89-5.74-4-7.49-2.1-17.59,5.74-21.89a73.06,73.06,0,0,0,8-5.07c.54-.44,1.07-.89,1.6-1.35,1.12-1,2.22-2,3.28-3a81,81,0,0,0,5.93-6.5s1.43-1.93,1.68-2.3c.86-1.24,1.7-2.5,2.5-3.78q2.4-3.85,4.46-7.93c.68-1.36,1.33-2.73,2-4.11.16-.35.28-.62.39-.83s.19-.56.35-1a131.75,131.75,0,0,0,5.57-19.07c2.74-13.15,3.27-28.28,3.06-43.1C547.68,125.9,499,149.22,449.69,148.89c-8.36-.06-16.39-7.32-16-16S440.73,116.83,449.69,116.89Z"/></svg>