<svg id="Layer_1" data-name="Layer 1" xmlns="http://www.w3.org/2000/svg" viewBox="0 0 649.57 235.39"><path d="M407.93,126.13A207.42,207.42,0,0,0,367.07,38.4c-6.47-8.3-13.64-16.16-22.77-21.63C324.66,5,298.17,7.52,277.4,15a127.05,127.05,0,0,0-52.62,35.62c-16.08,18.34-27.22,40.23-34,63.59-2.26,7.78,2.74,17.22,10.83,19.06,8.28,1.89,16.64-2.49,19.06-10.82,9.52-32.77,28.85-61,60.42-75.75,4.31-2,16.43-5.57,22.09-6.33,6.68-.89,16.75-1,22.95,1.77a25.37,25.37,0,0,1,7.67,5.36,99.43,99.43,0,0,1,9.26,10.2c1.29,1.59.93,1.14,2.72,3.58q1.75,2.38,3.42,4.83,4.07,5.93,7.69,12.15c10.43,18,16.85,35.12,21.15,56.15,1.62,8,11.47,13.28,19.06,10.82C405.54,142.46,409.67,134.65,407.93,126.13Z"/><path d="M124.52,160.4c19.58,5.87,40.81,8,60.25,10.57,42.31,5.63,85,7.51,127.62,8.76,42.84,1.26,85.93,3.18,128.71-.34,20.43-1.67,41.43-4,61.15-9.87a121.59,121.59,0,0,0,26.24-11c9.25-5.37,19.72-12.6,22.88-23.38,3.89-13.26-5.75-24.91-17.08-30.25a251.71,251.71,0,0,0-33.91-13A268.7,268.7,0,0,0,430,80.6c-8.11-.24-15.87,7.3-15.5,15.5A15.81,15.81,0,0,0,430,111.6a222.59,222.59,0,0,1,52.42,7.45,248.63,248.63,0,0,1,26.35,8.47c2,.77,4.45,1.4,6.2,2.61-4.89,4.21-11.58,6.32-17.6,8.33A168.39,168.39,0,0,1,476,143.91c-43.44,8.31-88.68,7-132.67,5.72-9-.25-18-.53-27.05-.79-38.76-1.1-77.57-2.64-116.12-7-19.62-2.21-40-5.06-59.87-9.81a90.64,90.64,0,0,1-24.4-9.45,78.46,78.46,0,0,1-11-7.79c-3.22-2.69-6.31-7.34-10.64-8.12,2.49.45,8.2-3.26,10.57-4.09,23.54-8.25,49.44-10.74,74.25-9.57,8.11.38,15.86-7.41,15.5-15.5A15.83,15.83,0,0,0,179.05,62a238.56,238.56,0,0,0-73.27,8C85.2,75.54,62.09,84.34,52.63,105.13c-9.54,21-5.9,49.75,6.63,68.89,13.21,20.19,35.65,28.44,57.65,35.46,90,28.72,187.11,27.06,280.38,21.87,27.2-1.51,54.51-4,81.18-9.73a236.54,236.54,0,0,0,36.38-10.44c11.86-4.64,24.13-11.47,29.46-23.74,3.22-7.41,2.44-17-5.56-21.2-5-2.63-11.85-2.67-16.67.37-3,1.87-3.65,4.28-5.38,7.07a19,19,0,0,1-8.13,6.73c-10.77,5.11-23.14,7.89-34.7,10.51-21.3,4.84-40.63,7-62.53,8.55-42.94,3.05-86.26,4.37-129.3,3.39-56.43-1.28-113.9-7.35-167.17-27-11.29-4.17-24.52-8.61-30.51-20.06a51.23,51.23,0,0,1-5.89-23.42c0,1.82,3.89,4.52,5.13,5.69C95.2,149.08,109.37,155.86,124.52,160.4Z"/></svg>