<svg id="Layer_1" data-name="Layer 1" xmlns="http://www.w3.org/2000/svg" viewBox="0 0 649.57 235.39"><path d="M521,192.44c-8-10.61-25.42-10.81-37.36-12.59-58.47-8.77-117.92-11.93-176.83-16.59q-39.81-3.15-79.61-6.46c-25.21-2.08-53.09-1.31-77.12-10.07-11.42-4.17-23.39-12.77-35.73-6.26-8.83,4.66-14.7,15.35-11.12,25.17,5,13.56,19.59,17.9,32.68,16.87,36.15-2.83,73.09-1.64,109.37.24q43.79,2.26,87.29,8.35,34,4.71,67.71,11.67c27.3,5.64,54.45,12.41,82.28,14.92,9.12.82,18.59,2.31,27.67.36,7.15-1.53,13.46-8.51,13.7-15.9A14.76,14.76,0,0,0,521,192.44Z"/><path d="M470.14,132.26c-5.58-20.11-8.91-41.41-20.29-59.33-25.08-39.49-75.25-53-119.2-56.15-24.29-1.73-49.06-.57-72.54,6.27-44.18,12.88-83.85,52.11-88.55,99.1-1.22,12.15,6.19,21.42,18.59,22.29,26.36,1.86,18.66-34.82,23.52-49.83,9.87-30.53,42.37-47.13,72.24-51,27.55-3.57,56.2-2.21,83.27,5.13,19,5.15,38.35,13.16,52.37,27.43,15.78,16.06,22.13,40.51,17.57,62.46-2,9.75,1,21,11.59,24.12,12.16,3.54,23.07-7.76,23.22-19.44A40.08,40.08,0,0,0,470.14,132.26Z"/></svg>