<svg id="Layer_1" data-name="Layer 1" xmlns="http://www.w3.org/2000/svg" viewBox="0 0 649.57 235.39"><path d="M523,60.13c-9.09-12.85-24.52-15.43-39.21-16.08q-23.62-1-47.29-.82A948.6,948.6,0,0,0,248.27,63.9a923.54,923.54,0,0,0-91.36,24.34c-12.73,4.11-26.35,9-35.59,19.13a37.47,37.47,0,0,0-4.41,45.2c17.89,29,56.83,25.3,86.31,24.74A823.5,823.5,0,0,0,296,170.24a858.73,858.73,0,0,0,85.39-15.74c28.54-6.78,56.34-15.93,84.27-24.82,22.55-7.17,49.85-16.41,59.8-40.27C529.46,79.84,529.1,68.75,523,60.13Zm-274.22,83c-27.47,2.06-55.64,3.64-83.16,1.85a29.79,29.79,0,0,1-7-.87c-1.7-.36-3.34-.88-5-1.31-.11,0-1.51-.52-1.64-.52-1.24-.58-2.39-1.31-3.57-2-.38-.22-.65-.36-.85-.45s-.37-.45-.71-.83c-.53-.57-1.09-1.11-1.62-1.68a15.39,15.39,0,0,0-1.59-2.69c-.07-.39-.37-1.37-.57-2a1.93,1.93,0,0,1,0-.24,17.81,17.81,0,0,1,.49-1.77c-.87,3.36.12.09.59-.82l.13-.25.13-.05a7.12,7.12,0,0,0,1.66-1.52c.51-.42,1.49-1.26,1.8-1.45,1.36-.88,2.77-1.67,4.21-2.41.86-.45,1.75-.87,2.63-1.28-2.18,1,1.52-.63,1.92-.78,2.31-.87,4.66-1.64,7-2.41q10.78-3.51,21.67-6.74,20.86-6.21,42-11.41A887.55,887.55,0,0,1,393,76.63c31.19-1.74,62.74-2.34,93.94-.43,1.18.07,9.3.44,7.15,3.07-3.32,4.07-7.91,5.75-12.7,7.61-5.26,2-10.62,3.79-15.85,5.88-12.41,4.95-24,11.74-36.51,16.45-13.17,5-27.22,7-40.86,10.19l-.43.11c-19.42,4.66-38.59,9.79-58.29,13.36A750.67,750.67,0,0,1,248.8,143.17Z"/><path d="M96.23,88.17A145.41,145.41,0,0,0,60.31,73.91c-8.11-2-17.72,2.6-19.68,11.18-1.88,8.26,2.48,17.54,11.18,19.68a103.85,103.85,0,0,1,28.26,11c7.31,4.08,17.8,2,21.89-5.74C106,102.52,104,92.53,96.23,88.17Z"/><path d="M101.08,146.45c-1.52-8.45-9.12-15-18-13.74a319.18,319.18,0,0,0-36.61,7.59c-8,2.17-15.4,8.71-13.74,18,1.36,7.62,9.33,16.07,18,13.74a317.06,317.06,0,0,1,36.61-7.59C95.61,163.23,102.61,155,101.08,146.45Z"/><path d="M126.78,182a16.35,16.35,0,0,0-21.89-5.74,336.64,336.64,0,0,0-30,17.91c-7,4.64-10.62,14.32-5.74,21.89C73.59,223,83.58,226.81,91,221.83a336.64,336.64,0,0,1,30-17.91C128.45,200,131.32,189.08,126.78,182Z"/><path d="M574.48,9.92a16.37,16.37,0,0,0-21.9-5.74A143,143,0,0,1,532,13.25c-7.87,2.8-14,11-11.18,19.68,2.51,7.75,11.24,14.18,19.68,11.17a217.92,217.92,0,0,0,28.22-12.29C576.16,27.91,579,17,574.48,9.92Z"/><path d="M601.06,50.88a372.57,372.57,0,0,0-47.37,4.75c-8.28,1.34-13.63,12.08-11.17,19.68,2.9,9,10.8,12.61,19.68,11.17a311.62,311.62,0,0,1,38.86-3.6c8.35-.27,16.39-7.16,16-16C616.68,58.45,610,50.59,601.06,50.88Z"/><path d="M605.48,112.51l-56.14-11.34c-8.18-1.66-17.67,2.35-19.68,11.17-1.82,8,2.4,17.91,11.17,19.68L597,143.36c8.18,1.66,17.68-2.34,19.69-11.17C618.47,124.22,614.25,114.28,605.48,112.51Z"/></svg>