<svg id="Layer_1" data-name="Layer 1" xmlns="http://www.w3.org/2000/svg" viewBox="0 0 649.57 235.39"><path d="M638.77,103q-51.93-27.08-106-49.62C522.7,49.16,514.49,61,516.41,69.77a366.36,366.36,0,0,1,7.35,50.12,606.08,606.08,0,0,0-103.41,11.8C420,113,417.1,94.1,405.7,78.91c-15.11-20.15-39.29-27.09-63.2-30.13-25.25-3.23-52.16-3.56-75.4,8.24-25.78,13.1-41.48,40.64-51.92,66.51a27.52,27.52,0,0,1-3.36,6.65c-3.53,4.59-9.94,4.12-15.13,5A114.41,114.41,0,0,1,179,136.58c-11.8.24-24.21,0-35.06,5.33-8.53,4.2-15.13,11.42-22.94,16.83-11.68,8.1-25.9,12-40.07,13.12s-28.42-.31-42.53-2.1c3.26-5.9,8.89-10,13.9-14.55s9.81-10.08,10.38-16.8c.44-5.29-1.82-10.43-4.41-15.07A100.65,100.65,0,0,0,41.44,101.1c-.9-.89-1.89-2.12-1.36-3.27S41.89,96.6,43,96.56a157.9,157.9,0,0,1,25.44,1.16c6,.76,12.1,1.9,17.59,4.51S96.47,109,98.92,114.6c1.73,4,2.16,8.41,4.09,12.27,6,12,25.86,13.23,32.45,1.13,6.71-12.31-3.3-26-11.67-34.53C100,69.2,63.59,68.07,32,72,18.48,73.68,2.68,83.29,6.64,99c1.88,7.46,8.29,12.11,13.34,17.41A84.4,84.4,0,0,1,32.85,133c2.49,4.44-5.11,8.7-7.77,11.39-7.65,7.7-16.53,16.23-19.76,26.91-4.19,13.83,6.69,21.52,19,23.4,31.1,4.74,65.5,7.44,95.23-4.94,12.36-5.14,21.29-13,31.61-21.21,6.56-5.23,16.12-5.19,24.19-5.48,9.75-.36,19.25-1.32,28.89-2.27,8.76-.88,18.17-4.09,24.81-10,9.1-8.11,11.39-19.91,16.63-30.33C253,106,262.2,91.57,276.18,82.73c16.33-10.32,37.93-10.36,56.58-8.61,14.23,1.33,29.7,3.73,41.82,12.1,14.95,10.33,18.65,27.74,19.14,44.93.16,5.7,0,11.39-.21,17.08-.33,9,8.74,14.72,16.85,12.84a573,573,0,0,1,127.5-14.79c7,0,13.62-6.08,13.32-13.31a407.3,407.3,0,0,0-4.37-44.79q14.9,6.57,29.62,13.53c9.26,4.38,20.45,8.19,28.76,14.14a7.49,7.49,0,0,0-3.14,1.85,243.38,243.38,0,0,1-20.58,17.36,269.16,269.16,0,0,1-24.94,16.12c-7.91,4.51-16.51,8.38-22.92,15-7.49,8-8.75,20.62-.73,28.79,7.21,7.34,19,8.41,27.82,3.66,9.16-4.9,14.21-14.7,20.46-22.56A211.82,211.82,0,0,1,638.77,126C647,121.11,647.79,107.72,638.77,103Z"/></svg>