<svg id="Layer_1" data-name="Layer 1" xmlns="http://www.w3.org/2000/svg" viewBox="0 0 400 400"><path d="M363,195.58c.55-2.16,1.22-4.27,2-6.36a121.19,121.19,0,0,1,5.7-12.38c9.35-18.47,16.68-36.41,18.25-57.27,1.43-18.93-2.53-39.14-12.69-55.34-21.11-33.65-60.89-43.11-98.07-44.83-8.32-.38-16.65-.4-25-.32-8.63.09-16.9,7.53-16.5,16.5s7.25,16.6,16.5,16.5c8.08-.08,16.16-.06,24.23.29q5.94.26,11.85.78c1.72.16,3.44.35,5.15.53l.57.07c1.26.18,2.52.37,3.77.58A121.07,121.07,0,0,1,321,60.06l1.11.43.59.22.92.36-.75-.29.66.28c1.66.81,3.33,1.6,5,2.49s3.21,1.81,4.76,2.81c.77.49,1.52,1,2.29,1.53l.54.33h0A75.24,75.24,0,0,1,344.16,76l.89,1,1.08,1.42a65.57,65.57,0,0,1,3.5,5.65c.77,1.41,1.49,2.86,2.15,4.33-.16-.22,1.18,3.28,1.36,3.86.6,1.87,1.11,3.77,1.56,5.69.22,1,.43,1.92.61,2.89.05.25.3,1.81.43,2.51,0,.22,0,.4.05.46.08,1,.18,2,.24,3q.2,3,.18,6c0,2-.08,4-.21,6-.07,1-.17,2-.25,3,0,.38-.06.68-.07.92s-.08.43-.13.71a111.1,111.1,0,0,1-2.44,11.14q-.81,2.92-1.78,5.8c-.24.68-2.24,5.89-1.53,4.29-8,18.59-19.72,35.37-20.69,56.25-.52,11.06,3,21.37,7.28,31.35,1.83,4.25,3.91,8.37,5.88,12.55.5,1.05,1,2.09,1.47,3.14.06.14.42,1,.59,1.38.87,2.18,1.66,4.4,2.36,6.64a102.21,102.21,0,0,1,3.23,13.24c0,.2.21,1.36.32,2s.2,1.83.22,2q.36,3.82.43,7.66a112.75,112.75,0,0,1-.59,13.63c0,.16-.1.7-.16,1.13-.16,1-.33,1.95-.51,2.92q-.64,3.34-1.5,6.65c-2.51,9.67-4.34,14.61-9.7,22.77l-1.06,1.51c-.42.49-1.08,1.28-1.22,1.43-.71.78-1.45,1.52-2.22,2.24-.16.15-1,.79-1.47,1.19-.72.36-2.65,1.45-3.28,1.87-.61.22-1.63.63-1.83.69-1.29.42-2.6.78-3.93,1.09-1.07.25-2.15.44-3.23.64.71-.13,2.9-.26-.55.07q-3.33.31-6.68.43c-5,.18-10,.08-15,0L265,339l-64.83-.52c-21.51-.17-43-.29-64.54-.52-4.94-.05-9.89-.13-14.82-.39-2.47-.13-4.93-.3-7.38-.53-1-.09-2-.2-3-.32-.05,0-2.17-.34-2.64-.42a89.07,89.07,0,0,1-13.44-3.4c-.94-.32-1.87-.7-2.82-1h0l-.17-.1c-2-1.08-4-2-6-3.15-1.45-.86-2.86-1.8-4.22-2.78.37.19-2.65-2.34-3.07-2.75-.58-.56-2.93-3.17-2.82-2.92a39,39,0,0,1-2.67-4.23c-.38-.7-.75-1.42-1.1-2.14-.07-.26-.51-1.41-.56-1.59-.62-2.2-1.23-4.38-1.69-6.63-.08-.35-.13-.62-.18-.86-.12-1.11-.21-2.22-.28-3.32-.15-2.62-.18-5.24-.12-7.85.45-19.33,4.18-37.44,10-57.06,3.19-10.69,6.73-21,7.89-32.17,1.14-10.89-1.3-21.42-6.13-31.16C76.23,164.66,69.84,157.32,64,150c-.66-.82-1.32-1.64-2-2.47l-.12-.15a2.29,2.29,0,0,1-.17-.23c-1.25-1.71-2.47-3.42-3.63-5.19a103.24,103.24,0,0,1-6.67-11.82c-.4-.84-.78-1.69-1.16-2.54l-.31-.87c-.71-2-1.42-4-2-6-.52-1.76-1-3.54-1.37-5.34-.22-1-.34-2.07-.61-3.07-.05-.18-.08-.3-.11-.38s0-.36-.05-.63a80.14,80.14,0,0,1,0-11.8,5.77,5.77,0,0,1,.09-.64c.21-1,.4-2,.65-3s.52-2,.82-3l.84-2.41.61-1.37c.42-.83.85-1.65,1.31-2.46.92-1.61,2-3.08,3-4.65.58-.64,1.12-1.32,1.71-2q2.07-2.27,4.37-4.33c.81-.72,4.8-3.63,2-1.75,1.54-1,3-2.14,4.61-3.14a93.84,93.84,0,0,1,9.94-5.44c.73-.35,5.83-2.47,2.65-1.23,1.8-.7,3.6-1.41,5.43-2.06,4.11-1.46,8.29-2.74,12.5-3.88,8.5-2.3,17.16-4,25.82-5.59A430,430,0,0,1,182.78,46c10.27-.41,20.56-.46,30.84-.22,8.63.21,16.89-7.73,16.5-16.5-.41-9.11-7.25-16.28-16.5-16.5a478,478,0,0,0-67.35,3.1c-21.11,2.49-42.56,5.59-63,11.64-17.82,5.27-35.44,13.2-49,26.2A71,71,0,0,0,12.5,107.41c.78,20.22,8.67,40.2,20.69,56.36,3.19,4.29,6.56,8.45,9.9,12.62l1.5,1.89.77,1c1.51,2.11,3,4.23,4.36,6.46.84,1.41,1.65,2.84,2.36,4.32,0,0,.62,1.68.77,2.18.3,1,.56,2,.79,3,0,.23.09.39.12.51s0,.24,0,.39a38.22,38.22,0,0,1,.07,4.54c0,1-.11,2-.22,3,0,.06-.45,2.14-.55,2.62-2.27,10.61-6.27,20.8-9,31.3A295.8,295.8,0,0,0,37.46,273c-2.76,21.18-3.82,44.94,9,63.37,27.11,39.07,79,34.53,120.86,34.87,46.31.37,92.64,1.11,139,1.1,10.42,0,21.53-.42,31.41-4,11.74-4.28,20.7-11.46,27.91-21.6,12.19-17.14,17.74-39.84,18.3-60.61.61-22.42-5.78-42.62-15.36-62.6-3.82-8-6.7-15.11-6.32-23.55C362.2,201,362.87,196.18,363,195.58Z"/><path d="M322.07,60.49l.76.29-.17-.07Z"/></svg>