<svg id="Layer_1" data-name="Layer 1" xmlns="http://www.w3.org/2000/svg" viewBox="0 0 400 400"><path d="M324.81,177.9Z"/><path d="M352.39,131c-8,.51-17.52,7.73-16.15,16.85a44.35,44.35,0,0,1,.54,6.81s-.08,1.15-.12,2l-.29,1.92q-.28,1.34-.63,2.64c-.09.35-.71,2.12-.82,2.55a52,52,0,0,1-2.4,4.85c-.59,1-1.23,2-1.89,3l-.29.34a69,69,0,0,1-4.68,5.14c-.67.65-1.36,1.26-2.05,1.89l1.2-1.11c-.24.22-1.13,1-1.57,1.34a75.86,75.86,0,0,1-6.47,4l-.67.39-.05,0c-1.2.46-2.39.94-3.61,1.35-2.44.83-4.93,1.36-7.42,2-.24.07-1,.21-1.38.29-.92.11-1.85.21-2.77.29a78.14,78.14,0,0,1-8.52.25c-1.3,0-2.59-.11-3.89-.19l-.68,0-.56-.08c-2.58-.38-5.15-.82-7.7-1.39-2.29-.51-4.55-1.11-6.8-1.79a48.46,48.46,0,0,1-5.9-2.05A105.07,105.07,0,0,1,252,174.63,69.82,69.82,0,0,1,241,165.81a71,71,0,0,1-5.31-5.66l-.65-.92c-.8-1.14-1.61-2.27-2.36-3.43a67.67,67.67,0,0,1-3.53-6.05c-.16-.31-1.51-3.48-1.23-2.67-.41-1.07-.81-2.14-1.17-3.23a66,66,0,0,1-2-7.44c-.13-.6-.25-1.21-.37-1.82,0-.07-.19-1.81-.23-2.32a63.35,63.35,0,0,1-.2-6.89c0-.19.21-2.94.17-3,.16-1.14.36-2.27.59-3.38a53.52,53.52,0,0,1,1.81-6.59c-.21.78,1.63-3.44,2-4.15.79-1.49,1.67-2.93,2.59-4.35.23-.26,1.51-2,1.72-2.24.92-1.09,1.87-2.16,2.86-3.19.67-.69,1.35-1.36,2-2,.27-.26,2.39-2,2.91-2.53l1.46-1.07c1.19-.84,2.41-1.65,3.64-2.42a80,80,0,0,1,7.07-3.93c.52-.26,2.08-.92,2.06-.93.91-.37,1.83-.73,2.76-1.07a105,105,0,0,1,15.9-4.26l.79-.16.91-.07c1.48-.12,3-.31,4.46-.41,3-.2,5.92-.25,8.88-.21,8.65.14,16.71-8.18,16.15-16.85a17,17,0,0,0-7.54-13.34,20.13,20.13,0,0,0-6.39-6.63C236.85,6.78,166.86,3.91,109.34,32.71c-32,16-56.63,42.05-77,71-19.56,27.87-24,61-22.9,94.31,2.19,65.47,27.8,133.15,87,167.21,28.66,16.49,61.53,20.2,93.93,16a328.25,328.25,0,0,0,101.28-29.88,264,264,0,0,0,42.91-25.93c13.84-10.32,27.58-21.64,37.74-35.72A93.82,93.82,0,0,0,390,244.17c1.66-15.41.28-30.44-2.08-45.69-1.09-7.07-2.42-14.1-3.8-21.11-1.33-6.74-8.43-11.56-15.27-11.93a53.38,53.38,0,0,0,.44-18.26C368,138.68,362.05,130.42,352.39,131Zm3.39,74.19c0,.32.32,2.18.4,2.75.2,1.53.39,3.05.57,4.58.37,3.3.67,6.6.85,9.91s.28,6.56.23,9.85c0,1.5-.08,3-.16,4.5,0,.75-.09,1.49-.15,2.24,0,.17-.12,1.21-.17,1.77-.13.8-.38,2.46-.45,2.89-.25,1.47-.54,2.92-.87,4.37s-.69,2.88-1.09,4.3c-.27,1-.56,1.9-.87,2.84-.05.16-.4,1.1-.59,1.64-.33.73-1,2.34-1.23,2.75-.73,1.53-1.51,3-2.35,4.51s-1.77,3-2.71,4.42l-.41.66c-.54.73-1.1,1.45-1.67,2.16a131,131,0,0,1-15.72,16.23q-2,1.75-4,3.46l-1.11.93-1.12.91q-5,4-10.22,7.68-9.3,6.62-19.15,12.38a240.26,240.26,0,0,1-40.55,19.27,311.08,311.08,0,0,1-44.89,12.84q-5.39,1.11-10.8,2c-.44.08-3.07.51-3.23.55q-3.15.46-6.31.85A196.1,196.1,0,0,1,166.47,350c-3.73,0-7.46-.05-11.18-.29-.45,0-3.07-.25-3.17-.24-1.82-.21-3.63-.48-5.44-.79q-4.85-.81-9.61-2.05c-1.52-.4-3-.83-4.54-1.29l-2.25-.71c-.22-.07-1.88-.66-2.58-.89l-.84-.33-2.17-.91q-2.16-.93-4.29-1.95-4.61-2.21-9-4.78t-8.5-5.43c-.58-.43-1.17-.87-1.75-1.32-1.46-1.12-2.91-2.27-4.32-3.45a145.36,145.36,0,0,1-14.86-14.29c-1.06-1.18-2.1-2.39-3.13-3.6l-.59-.67-.62-.84c-2.08-2.74-4.12-5.5-6-8.36A161.13,161.13,0,0,1,60.74,279a65.93,65.93,0,0,1-3.21-7.12q-2.31-5.66-4.25-11.47a207.71,207.71,0,0,1-5.81-21.1q-1.14-5.15-2-10.35c-.16-1-.33-2-.48-3l-.09-.64q-.42-3-.78-6.11a265.72,265.72,0,0,1-1.46-44q.14-2.51.33-5c.06-.83.13-1.67.21-2.5,0,.36-.23,1.91,0,0,.45-3.86,1.06-7.71,1.84-11.51.67-3.25,1.46-6.48,2.4-9.66.47-1.59,1-3.16,1.52-4.73.05-.15.1-.27.13-.38.35-.88.72-1.75,1.09-2.61,6.53-14.87,15.09-25.1,25.66-37.52A193.41,193.41,0,0,1,92,84.29c1.5-1.39,3-2.73,4.57-4.07l1-.83,1-.81q4.48-3.49,9.19-6.7a167.31,167.31,0,0,1,19.65-11.43c1.57-.77,3.15-1.53,4.75-2.25,1.8-.81.31-.12,0,0l2.42-1q5.28-2.13,10.68-3.91a163.78,163.78,0,0,1,22-5.59c.44-.08,3-.47,3.19-.51,1.57-.21,3.14-.41,4.71-.57q5.52-.57,11.06-.75a163.41,163.41,0,0,1,19.42.52l1.39.13,1.38.16c1.54.22,3.08.42,4.62.67,3.33.52,6.64,1.15,9.93,1.87a168.33,168.33,0,0,1,19.45,5.53l.6.22a101.25,101.25,0,0,0-27.24,17c-21,18.38-28.43,46.8-22.71,73.62,5.94,27.84,27.13,50.63,52.12,63.09,23.85,11.88,53.94,17.09,79.36,7A77.28,77.28,0,0,0,354,194.81C354.6,198.28,355.22,201.75,355.78,205.23Z"/></svg>