<svg id="Layer_1" data-name="Layer 1" xmlns="http://www.w3.org/2000/svg" viewBox="0 0 400 400"><path d="M371.79,114c-1.37-18.75-4.27-39.5-14.25-55.87-11.13-18.25-31.77-24.44-52-25.86a150.37,150.37,0,0,0-27.65,1.1c-9.73,1.14-19.77,2.71-28.1,3.72a643,643,0,0,1-116.3,3.56q-14.67-.89-29.28-2.43c-8.61-.91-16.87,8.23-16.5,16.5.44,9.71,7.28,15.53,16.5,16.5a647.17,647.17,0,0,0,108.54,2.3c18.64-1.18,37.17-3.33,55.67-5.91,5-.69,5.38-.78,10.39-1.34,4.31-.49,8.63-.89,13-1.09,4-.19,8-.22,11.94,0,1.86.1,3.73.21,5.58.44l.92.18c1.5.28,3,.57,4.49.93,1.72.42,3.43.89,5.11,1.44.74.24,1.52.5,2.27.79l.58.33c.55.31,3.63,2.31,3.25,1.86.44.4.87.81,1.28,1.23s1.27,1.63,1.43,1.79c.7,1.15,1.34,2.32,2,3.49.11.2.6,1.2.73,1.44.19.48.37,1,.55,1.44a107,107,0,0,1,3.67,12c2.19,9,2.63,13.09,3.27,22.35.61,8.75.79,17.53.81,26.3A512.18,512.18,0,0,1,337,195.06c-1.67,16.21-3.83,32.47-8.25,49.27A108.42,108.42,0,0,1,321,265.65q-2.29,4.53-5,8.82-1.45,2.31-3,4.55c-.44.64-.9,1.27-1.35,1.9l-.55.78-.18.22a134,134,0,0,1-14.45,15.4c-2.52,2.31-5.14,4.53-7.82,6.66-.37.27-1.85,1.4-2.25,1.69q-2.55,1.86-5.17,3.61a179.12,179.12,0,0,1-19.56,11.41,127.56,127.56,0,0,1-20,8.4,185,185,0,0,1-22.55,6.14q-3,.61-5.95,1.12l-2.56.42-2.59.36c-2.08.23-7.21.69-10.21.86a166.42,166.42,0,0,1-24.15-.4c-1.72-.16-3.44-.33-5.15-.55h0l-.73-.13-2.39-.39c-3.56-.61-7.1-1.36-10.61-2.22a164,164,0,0,1-20.65-6.67l-.9-.38-1.57-.7q-2.48-1.12-4.9-2.34-4.86-2.41-9.53-5.18c-2.88-1.7-5.71-3.51-8.48-5.4-1.49-1-2.95-2.08-4.41-3.14l-.65-.49-2.1-1.69a140,140,0,0,1-15-14.4q-1.81-2-3.54-4.09c-.49-.59-1-1.2-1.46-1.8a1.34,1.34,0,0,1-.11-.14,1.56,1.56,0,0,1-.14-.19c-2.22-3-4.34-6.09-6.32-9.27q-2.79-4.47-5.24-9.14c-.88-1.67-1.72-3.35-2.54-5.06-.35-.72-.69-1.45-1-2.19-.1-.21-.86-1.95-1.15-2.6-.17-.4-.35-.85-.36-.87-.29-.75-.59-1.5-.88-2.26q-1-2.64-1.93-5.31c-1.22-3.57-2.34-7.19-3.34-10.83a212.08,212.08,0,0,1-4.81-22.32c-.18-1.08-.34-2.16-.5-3.25,0,0-.09-.61-.15-1.06s-.13-1-.14-1.08c-.13-1.09-.26-2.18-.37-3.28q-.63-5.76-1-11.54c-.52-7.73-.76-15.48-.77-23.24,0-15.69.71-31.45,2.25-47.07.21-2.14.44-4.29.7-6.43,0,.08.12-.91.19-1.47s.24-1.54.22-1.46c.74-4.55,1.57-9.07,2.63-13.56.92-3.87,2-7.71,3.25-11.49q1-2.89,2.09-5.75c.4-.87.81-1.74,1.24-2.59C64.1,83,65,81.36,66,79.83c.41-.67,2.72-3.53,2-2.76.87-.95,1.75-1.87,2.69-2.75l.24-.23c.86-.55,1.71-1.06,2.61-1.56C81,68.29,84.14,57.36,79.37,50,74.46,42.34,64.84,39.5,56.79,44c-16.73,9.42-25.2,27.64-30.28,45.37-5.27,18.4-6.88,37.82-8,56.85-1.9,33.45-1,67.74,7.48,100.32,8.43,32.23,25.36,62.44,51,84.08,26.36,22.24,58.15,35.47,92.32,39.49,35.91,4.22,72.62-3.64,105.08-19.07,29.85-14.18,57.64-36.65,73.62-66,8.93-16.41,13.73-34.49,16.85-52.8a546.8,546.8,0,0,0,6.93-60.67A444.3,444.3,0,0,0,371.79,114Z"/></svg>