<svg id="Layer_1" data-name="Layer 1" xmlns="http://www.w3.org/2000/svg" viewBox="0 0 400 400"><path d="M361,154.27c-8.72.39-15.93,7-16,16-.26,34.26-4.77,66.74-15.94,99.59a91.64,91.64,0,0,1-8.4,19.12c-4.21,7.45-6.54,10.67-12.65,16.54-5.18,5-9.25,7.87-16.31,12.11-6.8,4.09-13.91,7.66-21.06,11.09-15,7.21-28,13.18-44.76,17.16-14.4,3.43-32.06,3.39-46.52,1.06-17.2-2.76-34.18-7.35-50.84-12.39-3.61-1.09-7.2-2.23-10.76-3.47-1.91-.66-3.81-1.36-5.7-2.08-.63-.24-3.93-1.58-3.66-1.44A115.26,115.26,0,0,1,87.55,316c-.59-.41-1.16-.84-1.73-1.27-.09-.08-.21-.17-.36-.31-1.33-1.11-2.65-2.23-3.93-3.39a100.94,100.94,0,0,1-7.26-7.37c-1.15-1.29-2.25-2.61-3.34-3.95l0,0-1.05-1.43q-3.24-4.52-6-9.33-2.43-4.18-4.52-8.56c-.64-1.34-1.25-2.68-1.84-4,0,0-1.29-3.38-1.47-3.88a141.39,141.39,0,0,1-5.56-19.58q-.54-2.6-1-5.2c-.13-.74-.25-1.49-.36-2.24,0-.23-.18-1.22-.26-1.8-.08-.84-.26-2.5-.31-2.94q-.28-3-.45-6a170.26,170.26,0,0,1,.41-23.9,164.25,164.25,0,0,1,3.36-22.1c1.78-8.44,4-16.78,6.55-25a447.31,447.31,0,0,1,17.37-45.95c3-6.9,6.2-13.74,9.79-20.36,1.66-3.07,3.4-6.09,5.26-9q1.48-2.37,3.07-4.67.67-1,1.38-1.95l1.12-1.51,1.25-1.52c.51-.61,1-1.21,1.55-1.8,1.22-1.38,2.48-2.73,3.79-4q1.68-1.68,3.45-3.26c.79-.71,1.6-1.39,2.41-2.07l.24-.2.32-.23a83.41,83.41,0,0,1,8.85-5.53c1.64-.88,3.32-1.7,5-2.48l.46-.21c1-.42,2.07-.81,3.11-1.18a127.73,127.73,0,0,1,21.08-5.45q2.82-.49,5.66-.89c1.89-.27.17,0-.18,0l3.27-.38q5.73-.61,11.49-1c7.93-.55,15.89-.92,23.83-1.2,4.06-.15,8.11-.24,12.17-.17,2.17,0,4.35.11,6.52.24.93.06,1.86.13,2.79.22.37,0,2.63.29,2.72.28,16.22,2.41,28.06,9.87,42.48,18.21,14,8.1,28,16.25,41.59,25.06,6.78,4.39,13.45,8.94,19.95,13.72,3.48,2.56,4.29,3.17,7,5.36,3.13,2.51,6.22,5.08,9.24,7.73a238.47,238.47,0,0,1,17.31,16.79c5.72,6.14,16.92,6.22,22.63,0a16.35,16.35,0,0,0,0-22.63C352.22,87.62,322.32,67.87,292,49.92,276.41,40.7,260.87,31,244.1,24.11c-18.12-7.5-37.5-8-56.82-7.19-34.79,1.5-70.81,4.12-99.23,26.42-27.1,21.26-40.41,57-52.31,88.11C22.84,165.21,13.36,202,16.3,238.4c2.64,32.58,14,64.61,36.33,89,24.32,26.55,59.94,36.85,93.76,45.31,18.88,4.72,38.51,8.38,58.05,8,19.21-.43,37.79-5.13,55.52-12.33,33.2-13.49,68.58-29.57,87.45-61.73,9-15.41,14.49-32.87,18.77-50.12a376.43,376.43,0,0,0,9.46-57.68c.83-9.48,1.24-19,1.31-28.5C377,161.9,369.55,153.88,361,154.27Z"/></svg>