<svg id="Layer_1" data-name="Layer 1" xmlns="http://www.w3.org/2000/svg" viewBox="0 0 400 400"><path d="M382.75,185c-.85-11-2.28-22-4.2-32.94-1.46-8.26-12-13.66-19.69-11.17-8.88,2.87-12.73,10.82-11.17,19.68,6.22,35.26,4.36,74.48.26,111.27-1.95,17.45-3.25,32.95-7,50.13a77.93,77.93,0,0,1-2.7,9.7c-.09.22-.44,1.08-.65,1.58-.09.2-.17.36-.2.41-.89,1.6-1.85,3.14-2.78,4.72,1.57-2.67-1.17,1.14-1.91,1.88-.22.21-.36.37-.47.49a6.93,6.93,0,0,0-.68.34c-.8.42-1.58.91-2.4,1.31l-1.23.32c-1.89.48-3.77,1-5.7,1.26.06-.06-3.36.25-3.91.28-2,.13-4.08.22-6.12.32-4.95.22-9.9.44-14.86.63q-14.87.6-29.73,1-29.24.8-58.49.91t-58.5-.5c-19.15-.39-38.41-.57-57.46-2.63a149,149,0,0,1-23.72-4.45c-1.81-.51-3.58-1.11-5.36-1.72-.2-.07-.93-.39-1.3-.54s-1-.47-1.46-.73a41,41,0,0,1-4.18-2.48c-.32-.24-.86-.65-1-.79-.75-.74-1.51-1.47-2.23-2.25-2.23-2.38-.8-1-.42-.49-.59-.87-1.14-1.77-1.65-2.68-.39-.69-.74-1.4-1.1-2.1l-.19-.38-.07-.18a73.49,73.49,0,0,1-3.16-11.56A135.7,135.7,0,0,1,45.16,288c-.06-37.44,10.17-73.22,13.54-111.22,1.59-17.95,2.25-37.11,5.19-53.45a148.35,148.35,0,0,1,6.22-23.9c.27-.73.54-1.46.82-2.19l.69-1.8.37-.87c.43-.94.86-1.89,1.31-2.82a102.44,102.44,0,0,1,5.62-10.16c1-1.52,2-3,3-4.46.12-.17.56-.74.8-1l1-1.14a74.74,74.74,0,0,1,8.62-8.63l1.36-1.12.87-.58c1.64-1.07,3.26-2.13,5-3.1s3.53-1.9,5.34-2.77l1.25-.57,2.87-1.1c16.35-5.9,34.22-8.32,50.31-10,36.89-3.8,75-2.48,110.18,4.48a214.62,214.62,0,0,1,24.84,6.31,99.73,99.73,0,0,1,21.91,9.6,104.14,104.14,0,0,1,8.91,5.76c-.28-.17,2.34,1.84,2.8,2.23q2.33,2,4.53,4.13,1.92,1.88,3.72,3.86c.69.76,1.34,1.54,2,2.31,0,0,.39.47.68.8.38.55,1.91,2.64,2.32,3.25q1.89,2.83,3.53,5.84c.72,1.3,1.38,2.64,2,4-.17-.27,1,2.61,1.22,3.22a67.22,67.22,0,0,1,2.64,11c1.31,8.29,12.11,13.62,19.68,11.17,9-2.92,12.58-10.79,11.18-19.68-6-38.22-39.3-64.24-73.65-76.65C289.08,22,269.3,18.8,249.66,16.26A393.39,393.39,0,0,0,188.1,13.2a417.37,417.37,0,0,0-62.49,6.63C106,23.4,87.13,29.56,71.43,42.23c-29.94,24.16-38.66,64-42,100.38C28.46,152.73,27.86,162.87,27,173s-1.86,18.84-3.27,28c-3.18,20.75-7.14,41.4-9.26,62.3-2.09,20.55-2.08,41.71,2.63,61.93a64.37,64.37,0,0,0,13.11,27.19c6.61,7.85,15.86,12.73,25.34,16.22,18.7,6.87,40,8,59.75,8.91,21,1,42,1.25,63.06,1.44q63,.57,125.9-2.11c19.67-.84,41.32-1.19,54.67-18.06,11.28-14.26,13.73-31.61,16.14-49.07C380.8,268.5,386,226.72,382.75,185Z"/></svg>