<svg id="Layer_1" data-name="Layer 1" xmlns="http://www.w3.org/2000/svg" viewBox="0 0 400 400"><path d="M376.38,160.6c-7.86-31.69-25.05-62.91-51-83.28A123.68,123.68,0,0,0,303.93,63.4c-7.72-3.84-18.22-2.33-22.58,5.92-3.94,7.46-2.33,18.47,5.92,22.57,3.1,1.54,6.13,3.19,9.07,5,1.46.9,2.9,1.85,4.31,2.83.8.56,1.58,1.17,2.39,1.71l.15.1h0a131.87,131.87,0,0,1,15.32,14.85c.64.75,1.27,1.52,1.9,2.27l.39.46c.34.46,1,1.28,1.12,1.47.44.6.88,1.2,1.31,1.81,2.3,3.24,4.46,6.59,6.47,10q2.66,4.51,5,9.22c.66,1.35,1.31,2.71,1.93,4.07.29.64.57,1.28.86,1.93.14.33.48,1.15.71,1.73a159.57,159.57,0,0,1,6.55,20.71c.95,3.9,1.75,7.84,2.43,11.8.16.93.31,1.87.45,2.8,0,.2.41,2.84.42,2.85.14,1.2.47,4.37.6,5.88,1.66,18.26,1,36.65-1,54.86-.92,8.58-1.92,15.39-3.51,24.85-1.41,8.39-2.86,16.8-4.89,25.07-.93,3.82-2,7.61-3.28,11.33-.18.52-1.39,3.63-1.33,3.61-.82,1.85-1.73,3.67-2.71,5.43-1.09,2-2.3,3.81-3.54,5.68-.21.31-.35.53-.44.68s-.3.32-.56.62a80.79,80.79,0,0,1-8.24,8.1l-.47.36-1.37,1c-1.39,1-2.82,1.87-4.27,2.74-3.15,1.89-6.44,3.42-9.74,5h0c-.73.29-1.46.59-2.2.87-1.63.61-3.28,1.19-4.93,1.73-3.58,1.18-7.21,2.2-10.86,3.1q-5.15,1.26-10.35,2.22-2.6.48-5.2.9l-2.23.35-2.63.37-.37,0-3.76.45c-2.2.25-4.41.48-6.61.7q-7.08.69-14.18,1.15a432.88,432.88,0,0,1-55,0A371.7,371.7,0,0,1,132,347.73q-13.5-2.7-26.79-6.26c-4.06-1.09-8.11-2.21-12.12-3.48-1.92-.61-3.84-1.25-5.74-1.95l-1.77-.67c-.22-.11-1.78-.79-2.23-1-1.79-.87-3.56-1.82-5.27-2.86-.73-.45-1.44-.95-2.16-1.4l-.56-.33a55.06,55.06,0,0,1-6.13-6c.26.25-1.23-1.54-1.76-2.34q-1.26-1.9-2.37-3.92c-.71-1.29-1.25-2.7-2-4-.3-.79-.6-1.58-.88-2.37a82.36,82.36,0,0,1-2.55-9.13c-.35-1.57-.65-3.15-.92-4.73-.11-.65-.21-1.3-.31-1.95,0-.16,0-.36,0-.59a181.55,181.55,0,0,1-.71-20.73c.4-15.68,2.51-31.28,4.45-46.82,1-8,2-15.24,3.49-24.47,1.45-8.95,3.12-17.86,5.12-26.71s4.31-17.57,7.06-26.2q1.92-6,4.14-12c.64-1.72,1.31-3.42,2-5.13,0,0,.15-.36.28-.7.27-.6,1-2.39,1.13-2.61A206.35,206.35,0,0,1,95.8,109.09q2.79-4.75,5.84-9.34c1-1.53,2.06-3,3.12-4.53.61-.85,1.23-1.69,1.85-2.53l.55-.75A152.17,152.17,0,0,1,122.65,75c2.46-2.31,5-4.49,7.63-6.64l.39-.32,1.83-1.36q2.53-1.83,5.14-3.54c3-2,6.17-3.84,9.38-5.53,1.84-1,3.7-1.86,5.58-2.75l.68-.3,2.56-1a114.68,114.68,0,0,1,21.78-5.86l1.21-.19,1.33-.15c1.8-.15,3.6-.32,5.41-.42a103.67,103.67,0,0,1,11.56,0c1.76.11,3.5.31,5.25.45.85.14,1.69.27,2.54.43A91.71,91.71,0,0,1,216,50.62c1.7.54,3.36,1.16,5,1.76l.77.33,1.59.74a88.75,88.75,0,0,1,10,5.7c7.24,4.74,18.56,1.69,22.58-5.91,4.36-8.25,1.8-17.52-5.92-22.58C220.48,11.28,181.34,9.28,148.53,21.2,114.71,33.48,88,58.68,69.33,89.06c-19.68,32.08-29.68,69-35.62,105.85-3.16,19.59-5.65,39.36-7.63,59.11-1.62,16-1.95,32,.29,47.93s7.86,30.62,17.91,43.21c12,15.11,30.48,22.12,48.54,27.13a448.39,448.39,0,0,0,120.6,16.24,438.14,438.14,0,0,0,59.9-4.34c16.63-2.35,32.71-6.44,48-13.54,15.65-7.28,29.52-19,38.3-34,9.62-16.39,13.06-35.36,16.2-53.83C382.65,242.52,386.35,200.78,376.38,160.6Z"/></svg>