<svg id="Layer_1" data-name="Layer 1" xmlns="http://www.w3.org/2000/svg" viewBox="0 0 120 165.79"><path d="M100.81,126.53a21.16,21.16,0,0,0-11-4.57c.35-2.92.67-5.84.94-8.77.93-10,1.35-20.1,1.45-30.17s-.11-20.1-.54-30.13c-.42-9.77-1.41-19.76-6.2-28.48C75.82,7,53.55,2,38.7,15.91,24.26,29.43,25.41,53,24.88,71.15a470.3,470.3,0,0,0,1.51,53.49c-.62,0-1.24,0-1.86.1-7.78.69-16.37,4.44-18,13a14.6,14.6,0,0,0,.32,6.72c.59,6.38,5.85,10.11,11.94,10.81,9.17,1.06,18.91.79,26.06-4.66,4.14-2,7.53-6.12,7-10.78a476.88,476.88,0,0,1-3-70.68c.33-9.85-.36-21.44,3.17-30.82,1.1-2.93,2.32-4.83,4.45-6.15s3.09-1,4.76.21A13.65,13.65,0,0,1,66,39.76c1.29,4.6,1.51,9.24,1.7,14,.48,11.7.68,23.42.42,35.12a312,312,0,0,1-2.53,35c-1.48,10.87-7.08,26.47,6.88,31.66,5.61,2.09,14.28,2.87,20.27,2.19,7.68-.87,13.61-6.17,14.85-13.85A18.81,18.81,0,0,0,100.81,126.53Z"/></svg>