<svg id="Layer_1" data-name="Layer 1" xmlns="http://www.w3.org/2000/svg" viewBox="0 0 120 165.79"><path d="M100.83,33.31C82.4,18.07,56,21,35.91,31.17c-10,5-20.32,10.89-26.55,20.53C3,61.52,2,73.63,1.82,85s.71,23.43,6.73,33.41a37.11,37.11,0,0,0,8.66,9.82,39.84,39.84,0,0,0,22.85,8.56c5.81.25,11.81-.85,16.71-4s8.55-8.49,8.82-14.3A15.76,15.76,0,0,0,60.14,106a16.2,16.2,0,0,0-9.08-3.74c-3.94-.28-6,1.81-9.3,3.45-5.55,2.73-11.62-.84-14.92-5.41-6.27-8.67-4.07-21.12.32-30.08A53.48,53.48,0,0,1,49.75,47c8.18-4.34,18.11-6.52,27.31-4.83,4.53.83,9.56,2.75,12.46,6.53,3.21,4.18,3.33,10.63,3.36,15.65.07,10.24-2.71,18.8-10.64,25.49-8.59,7.23-13.46,18.33-6.42,28.65a20,20,0,0,0,26.85,5.5c8.41-5.3,12.16-15.48,13.81-24.81C120.28,77.61,119.12,48.44,100.83,33.31Z"/></svg>