<svg id="Layer_1" data-name="Layer 1" xmlns="http://www.w3.org/2000/svg" viewBox="0 0 120 165.79"><path d="M102.08,27.88a19.81,19.81,0,0,0-13.83,1.31c-5.16,2.53-7,7-10.61,11.21a63.82,63.82,0,0,1-6.52,6.32l-14,12.41c-9.17-11.19-13.77-27-27.14-34.25C16.81,17.75,1.23,29,6,43.88c1.83,5.73,6.37,8.87,10.81,12.45a160.73,160.73,0,0,1,12,10.75c4.09,4,7.93,8.27,11.6,12.64-2.6,2.81-5.11,5.71-7.47,8.72-5.63,7.16-11.24,14.78-15,23.11-4.5,9.87-5.25,25.4,8.11,28.68a16.9,16.9,0,0,0,15.68-4.65c3.85-3.9,4.9-8.88,5.7-14.05A69.33,69.33,0,0,1,55,99c3.46,5,6.79,10.07,10.06,15.19,5.63,8.84,11.24,19,21.81,22.51,14.9,5,26.74-10,18.18-23.28-5.67-8.82-14.63-16-22-23.31a127.37,127.37,0,0,1-9.48-10.34A134.24,134.24,0,0,1,98.42,65.13c7.47-3.4,14.65-8.31,16.52-16.83C117,39.12,111,30.35,102.08,27.88Z"/></svg>