<svg id="Layer_1" data-name="Layer 1" xmlns="http://www.w3.org/2000/svg" viewBox="0 0 120 165.79"><path d="M109.75,96.33c9.45-5.49,12.52-18.93,1.84-25.63A31.22,31.22,0,0,0,101,66.78l1-.31a11.28,11.28,0,0,0,7.73-13.63C107.33,44.18,99.42,41,91.22,40.63c-8.47-.42-17-.23-25.49-.35l-51.92-.72c-14.26-.19-14.27,22,0,22.16l9.25.12c-1.92.41-3.83.85-5.72,1.37-4.06,1.12-8.7,2.39-11.78,5.47A13.09,13.09,0,0,0,2.84,83.35c4.26,9.21,14.86,9.26,23.61,9.1,6.56-.12,13.1-.74,19.63-1.49-8.8,2.29-17.76,4.28-26.44,6.94C9.51,101,.84,110.14,5.34,121.34c3.68,9.15,14.1,11,22.68,8.48,8-2.36,15.56-5.86,23.66-8a165.33,165.33,0,0,1,52.37-5.06c6,.35,11.08-5.34,11.08-11.08A10.73,10.73,0,0,0,109.75,96.33Z"/></svg>