<svg id="Layer_1" data-name="Layer 1" xmlns="http://www.w3.org/2000/svg" viewBox="0 0 120 165.79"><path d="M101.78,86.89a12.34,12.34,0,0,0,.84-2.22c2.76-10.2,15.85-17.69,13.18-30.52-1.92-9.25-10.13-9.77-17.92-10.41-5.53-.46-11.07-.73-16.61-.84A150.4,150.4,0,0,0,68.89,25.83c-3.77-4.53-11.7-3.95-15.56,0a100,100,0,0,0-15,19.75A140.61,140.61,0,0,0,23,48.69C16.63,50.39,8.13,52.12,6.1,59.48s3,12.21,7.2,17.3l6.89,8.34A98.79,98.79,0,0,0,7.48,114.43C5.54,122.11,12.8,130.79,21,128a166.33,166.33,0,0,0,36.82-17.84c5.22,3.33,10.5,6.56,15.87,9.62,7,4,15.88,9.36,24.17,9.06,12.47-.45,13.25-14.23,10.43-23.29C106.35,99.24,104.12,93,101.78,86.89Z"/></svg>