<svg id="Layer_1" data-name="Layer 1" xmlns="http://www.w3.org/2000/svg" viewBox="0 0 120 165.79"><path d="M55.23,40.92C50.91,30,37,27.1,27.13,31.74a20.31,20.31,0,0,0-9.9,26.68c5.24,11.28,20.3,13.72,29.12,5.38C52.51,58,58.71,49.72,55.23,40.92ZM33.87,46.64A5.84,5.84,0,0,1,37.56,46c1.4.2,2.89.74,1.25,2-1.07.8-2.42,1-3.59,1.6-.38.19-3,1.81-2.87,2.17-.05-.11-.25-.2-.24-.08C31.84,49.58,31.83,47.8,33.87,46.64Z"/><path d="M83.15,104.15v0Z"/><path d="M91.2,89.6a18.21,18.21,0,0,0-16.59.84c-13.12,7.68-15,30.49-.21,37.31,9.88,4.55,22.38.12,26.79-9.93C105.69,107.55,101.71,94.43,91.2,89.6Zm-5.39,22a3.9,3.9,0,0,1-3.7,1.51c-1.89-.37-1.45-1.94-.72-3.23a15.12,15.12,0,0,0,1.27-2.3,14.32,14.32,0,0,0,.6-3,3.46,3.46,0,0,0,0-.79A10.8,10.8,0,0,1,85,105.1a5.26,5.26,0,0,1,1.78,4.16A4.2,4.2,0,0,1,85.81,111.6Z"/><path d="M98.28,31.49c-7.63.53-13.38,5.92-18.1,11.44-5.13,6-10.35,11.76-16.67,16.55a196.45,196.45,0,0,0-17.22,15C40.73,79.81,35,85.1,28.19,88.83c-5,2.73-10.85,2.78-15.63,5.78a13.81,13.81,0,0,0-5.77,16.91,13.66,13.66,0,0,0,13.46,8.34c7.29-.25,12.18-5.24,17.33-9.78,4.63-4.1,9.13-8.35,13.61-12.61,5-3.76,9.92-7.65,14.75-11.6C71.33,81.46,76.3,76.63,81.47,72A41.91,41.91,0,0,1,93.19,64c4.41-1.82,9.19-3.51,13.21-6.15C118.82,49.75,113.82,30.4,98.28,31.49Z"/></svg>