<svg id="Layer_1" data-name="Layer 1" xmlns="http://www.w3.org/2000/svg" viewBox="0 0 120 165.79"><path d="M85.63,61.15a17.94,17.94,0,0,0,21.61,1.28c8.33-5.75,8.48-16.84,3.25-24.8-4.24-6.45-10.83-11.28-17.42-15.1A77.24,77.24,0,0,0,70.83,14v-.08c.46-6.47-5.84-12-12-12S48.18,6.48,47.08,12.17a57.68,57.68,0,0,0-13.73,2.32A39.79,39.79,0,0,0,10.53,33.13,35.28,35.28,0,0,0,8.09,62.55,44,44,0,0,0,24.84,83.9a66.08,66.08,0,0,0,22.39,9.36c.51,12,1,24,1.2,36-1.4-.41-2.73-.85-4-1.3-1.92-.7-4.52-1.92-5.07-4.12-.63-2.49,1.63-4.9,2.29-7.16a17.34,17.34,0,0,0-7.06-19.24C26.63,92.13,15,94,9.93,102.35c-5.79,9.43-4,20.89,1.87,29.81,6.82,10.38,17.31,15.32,28.94,18.61,2.54.72,5.12,1.31,7.72,1.78.93,13.68,22.08,13.77,23.85.26A50.59,50.59,0,0,0,97,141.36a34.34,34.34,0,0,0,12.12-23.48c.76-9.51-3.43-18.79-9.38-26-6.13-7.45-14.62-12.57-23.54-16q-2.84-1.08-5.72-1.9C70,62,69.76,50.11,69.9,38.19c.63.2,1.27.4,1.9.62,3,1,9.11,2.35,10.32,5.54.71,1.88-.78,5-.7,7.09C81.54,55,82.83,58.78,85.63,61.15ZM37.14,41.07a18.21,18.21,0,0,1,8.79-5c-.16,10.71,0,21.41.34,32.12C35.05,64.76,28.18,50.43,37.14,41.07Zm46.91,76.32c-1.56,7.33-6,11.25-11.6,13-.16-10.18-.53-20.37-.94-30.55C78.07,103.12,85.81,109.13,84.05,117.39Z"/></svg>