<svg id="Layer_1" data-name="Layer 1" xmlns="http://www.w3.org/2000/svg" viewBox="0 0 120 165.79"><path d="M116.23,65.43c-3.09-5.27-8.5-8.68-12-13.62a66.29,66.29,0,0,0-10.66-11.9A51.29,51.29,0,0,0,73.41,29.12a49.87,49.87,0,0,0-38.6,5.59c-8.93,5.5-14.73,14.46-21.79,22-1.8,1.91-4.58,2.3-6.63,4a12.85,12.85,0,0,0-4.37,7C.19,75.59,6.76,83.48,14.71,83.8c5.78.24,10.08-3.31,12.72-8.2,2.77-5.13,3.21-11.13,6.27-16.22a33.51,33.51,0,0,1,8.48-9.24c1.25-1,9.32-7,9.68-4C52.45,51,51.15,56,51,60.89c-.5,16.07-1,32.9-4.72,48.73a148.27,148.27,0,0,1-6,18c-2.68,7.12-2.64,14.18,2.75,20.1,4.63,5.08,12.29,7.66,18.91,5.31,6.79-2.41,11.51-9,12.67-16,1.51-9-6.18-16.51-8-25-2.29-10.73-2.09-21.54-1.92-32.44,0-7.54.18-15.08.38-22.61.12-4.47.26-8.94.31-13.41a2.45,2.45,0,0,1,.19-1.07,1.13,1.13,0,0,1,1.4-.42c4.21,1.19,8.65,2.49,12.26,5a22.12,22.12,0,0,1,5.27,5.26c.51.73.92,1.52,1.39,2.27,3.64,6.9,2.18,15.17,6.35,21.85,3.8,6.05,10.94,9.5,17.88,6.85a12.44,12.44,0,0,0,7.76-9.91A12.19,12.19,0,0,0,116.23,65.43Z"/></svg>