<svg id="Layer_1" data-name="Layer 1" xmlns="http://www.w3.org/2000/svg" viewBox="0 0 120 165.79"><path d="M117.86,73.05c-2.1-6.69-8.24-11-15-11.83-12.61-1.43-23.76,9.43-31.61,18-7.46,8.12-14,17.52-22.8,24.28a34.84,34.84,0,0,1-11.39,6c-.26.07-.52.13-.79.18.27-.47.55-.93.85-1.38a28.71,28.71,0,0,1,3.3-3.86,76.47,76.47,0,0,1,9.4-7.92c7.53-5.58,15.47-11,21.39-18.31,4.48-5.57,7.75-12.58,4-19.55-3.21-5.9-10-8.09-16.35-7.62-12,.87-21.53,8.46-32.58,11.44-.81.22-1.43.37-2,.47a17.37,17.37,0,0,1,2.07-2.91,27.57,27.57,0,0,1,6.31-5c11.26-6.69,1-24.31-10.29-17.59C12.54,43.23.91,55,1.46,67.28c.65,14.8,17.29,17.87,29,15.18a45.43,45.43,0,0,0,8.15-2.83C32.68,84,26.89,88.46,22.35,94.2c-6.84,8.64-13.37,23-3.49,32,9.44,8.61,25.22,3.71,34.91-1.88,10-5.75,17.7-14.32,25.09-23A153.4,153.4,0,0,1,91.78,87.41c.6-.55,1.21-1,1.83-1.53-1.39,2.17-2.84,4.3-4.42,6.33a97.88,97.88,0,0,1-13.73,14.1c-4.18,3.58-3.67,10.73,0,14.41,4.15,4.15,10.22,3.59,14.41,0A110.7,110.7,0,0,0,113.16,93C116.69,87,120.07,80.14,117.86,73.05Z"/></svg>