<svg id="Layer_1" data-name="Layer 1" xmlns="http://www.w3.org/2000/svg" viewBox="0 0 120 165.79"><path d="M103.83,68.71l-28.33.18c1.32,0,2.24-35.06,2.4-38.36.19-3.79.37-7.64-.63-11.29C74.24,8.17,58.5,3.51,49,8.54a20.86,20.86,0,0,0-10.54,12.9c-1.64,6.26.32,12.44,1.71,18.51A189,189,0,0,1,44.35,69.1l-28.18.18C.3,69.39.27,94.06,16.17,94l28.71-.19c-.06,3.48-.18,6.95-.34,10.42-.47,10.29-2.06,20.65-2.14,30.94s4.43,24,16.4,25.48a14.12,14.12,0,0,0,15.09-9.86c1.63-5.26.49-10.64.06-16-.9-11.13-1.38-22.28-1.58-33.44q-.06-3.86-.09-7.71l31.55-.2C119.7,93.27,119.73,68.6,103.83,68.71Z"/></svg>