<svg id="Layer_1" data-name="Layer 1" xmlns="http://www.w3.org/2000/svg" viewBox="0 0 120 165.79"><path d="M102.35,33.47c-16.67-8.95-36.19-13.53-54.87-9C26.4,29.64,9.61,46.93,4.2,67.85a55.13,55.13,0,0,0,.54,30.56c4,12.16,11.85,25.3,23,32.13,10.28,6.33,24.12,7.74,35.88,6.3,12.92-1.58,24.92-7.48,31.92-18.82a31.16,31.16,0,0,0-2.21-36.39C85.62,72.2,73.51,67.18,61.83,65c-10.32-1.92-22.11,3.81-21.71,15.74a18,18,0,0,0,8.74,14.39c6.49,3.86,12.15.25,19,1.06,6,.71,8.14,6.09,3.8,10.62C58.86,120.12,35.3,108,29.29,93.93s.4-32.71,12.32-41.86c13.59-10.42,32.09-2,44.33,6.25,4.41,3,8.44,6.83,13.48,8.67,6,2.16,13.09.74,16.56-5,6.48-10.66-4.26-23.51-13.42-28.45Z"/></svg>