<svg id="Layer_1" data-name="Layer 1" xmlns="http://www.w3.org/2000/svg" viewBox="0 0 120 165.79"><path d="M87.75,31.43A39.55,39.55,0,0,0,76,17.06,15,15,0,0,0,74.56,16c-10.34-7.2-25.87-5.47-36.55.17-6.08,3.21-12.2,9.2-12.7,16.37A12.79,12.79,0,0,0,33,45.37c4.16,2.32,10.08,2.12,13.3-1.67,3.38-4,8.6-9.58,14.14-9.75a4.67,4.67,0,0,1,2.13.46,6.7,6.7,0,0,1,.9.54l0,0c2.54,1.82,4.32,5.67,5.64,8.34,6.7,13.53,8.41,29.17,8.38,44.08,0,13.24-.54,29.07-10.5,39.07-7,7-19.17,8.17-22.67-2.52a41.06,41.06,0,0,1-1.76-9.33s0,0,0-.05c-.07-1.14-.13-2.28-.2-3.43-.13-4.37.08-8.77.2-12.91a190.81,190.81,0,0,1,2-22.67,8.16,8.16,0,0,0,.68-2.2,29.82,29.82,0,0,0,.34-4.09v-.09a12.44,12.44,0,0,0-2.31-10.07,13.31,13.31,0,0,0-8.88-6.27C24.52,50.53,18.05,59.21,18,68.15c-.09,15.39,1.74,31.05,2.61,46.42a11.5,11.5,0,0,0,.12,1.18,59.69,59.69,0,0,0,2.9,15.52c7.31,20.86,31.51,28.5,50.31,17.47C93,137.57,98.55,115,99.38,94.46,100.25,73,97.63,50.8,87.75,31.43Z"/></svg>