<svg id="Layer_1" data-name="Layer 1" xmlns="http://www.w3.org/2000/svg" viewBox="0 0 120 165.79"><path d="M107.13,80.84c2.69-6,2-13.36,0-19.63a69.31,69.31,0,0,0-3.95-9.41A64.66,64.66,0,0,0,91.07,35.26C85.74,29.91,80.22,25.2,73,22.81a60.53,60.53,0,0,0-24.77-2.5c-8.13.78-16.39,2.35-23.22,7.13A40.29,40.29,0,0,0,10.28,47c-5.64,15.3-1.5,37.43,10.85,48.54a33.08,33.08,0,0,0,24.06,8.26,38.73,38.73,0,0,0,6.44-.92c1-.24,2-.51,3-.83,1.47-.46,1.57-.82,2.36.49,2.42,4,2.56,10,2.69,14.55.05,1.8.05,3.6.05,5.4,0,2.45-.21,3.3-2.3,4.35a21.53,21.53,0,0,0-3.89,2.58A28.79,28.79,0,0,0,47.06,137c-3.15,5.29-4.86,12.36-1.15,17.83a14.57,14.57,0,0,0,4.76,4.31c6.3,3.69,15.43,2.49,22.12.38a24.08,24.08,0,0,0,8.83-4.67,14.83,14.83,0,0,0,5-11.85c-.25-5.11-3-9.68-4.67-14.41A88.06,88.06,0,0,1,77.31,103c-.28-8-1.62-17-6.25-23.85-2.52-3.7-6.67-6.6-11.14-6.39-4.14.2-7.66,2.92-11.41,4.71-5.25,2.49-11.76,3.1-16.72.07a15.76,15.76,0,0,1-6.44-8.36,25,25,0,0,1-1-10.64,28.34,28.34,0,0,1,5.72-14.83,26.58,26.58,0,0,1,18.85-9.5,34.69,34.69,0,0,1,20.63,5.58c7.15,4.52,13.08,12,13.22,20.45,0,3.43-.83,6.82-.91,10.24a22.17,22.17,0,0,0,4.78,14.21,13,13,0,0,0,5.65,4.34C98.59,91.27,104.68,86.33,107.13,80.84Z"/></svg>