<svg id="Layer_1" data-name="Layer 1" xmlns="http://www.w3.org/2000/svg" viewBox="0 0 120 165.79"><path d="M114.14,61.28C110.84,49,100.27,38.92,87.68,36.75A33.54,33.54,0,0,0,64.12,41.2,34.87,34.87,0,0,0,34,37.69C20.31,42.38,9.1,53.74,5.66,68c-7.81,32.33,17.4,57.71,40.56,75.68,5.21,4,12.21,5.07,17.29,0,4.21-4.22,5.24-13.22,0-17.29-14.19-11-32.86-24.75-34.69-44.25-.74-7.89,2.05-14.75,7.88-18.78,2.81-1.94,6.1-3.47,9.89-3.19a7.28,7.28,0,0,1,4,1.29c1.51,1,1.42,1.14,2.27,2.66,4.81,8.65,16,7.1,21.1,0a9.41,9.41,0,0,1,10.78-2.94c4.51,1.74,6.45,6.33,6.36,12.3a40.54,40.54,0,0,1-17,31.74c-5.42,3.75-7.89,10.71-4.38,16.72,3.14,5.37,11.26,8.15,16.72,4.38C106.42,112.47,120.79,86,114.14,61.28Z"/></svg>